<svg xmlns="http://www.w3.org/2000/svg" xmlns:xlink="http://www.w3.org/1999/xlink" viewBox="0,0,256,256" width="24px" height="24px" fill-rule="nonzero"><g fill="#04aa9e" fill-rule="nonzero" stroke="none" stroke-width="1" stroke-linecap="butt" stroke-linejoin="miter" stroke-miterlimit="10" stroke-dasharray="" stroke-dashoffset="0" font-family="none" font-weight="none" font-size="none" text-anchor="none" style="mix-blend-mode: normal"><g transform="scale(10.66667,10.66667)"><path d="M12,2c-5.511,0 -10,4.489 -10,10c0,5.511 4.489,10 10,10c5.511,0 10,-4.489 10,-10c0,-5.511 -4.489,-10 -10,-10zM12,4c4.43012,0 8,3.56988 8,8c0,4.43012 -3.56988,8 -8,8c-4.43012,0 -8,-3.56988 -8,-8c0,-4.43012 3.56988,-8 8,-8zM12,6c-2.21,0 -4,1.79 -4,4h2c0,-1.1 0.9,-2 2,-2c1.1,0 2,0.9 2,2c0,2 -3,2.367 -3,5h2c0,-1.651 3,-2.5 3,-5c0,-2.21 -1.79,-4 -4,-4zM11,16v2h2v-2z"></path></g></g></svg>