<svg xmlns="http://www.w3.org/2000/svg" xmlns:xlink="http://www.w3.org/1999/xlink" viewBox="0,0,256,256" width="24px" height="24px" fill-rule="nonzero"><g fill="#04aa9e" fill-rule="nonzero" stroke="none" stroke-width="1" stroke-linecap="butt" stroke-linejoin="miter" stroke-miterlimit="10" stroke-dasharray="" stroke-dashoffset="0" font-family="none" font-weight="none" font-size="none" text-anchor="none" style="mix-blend-mode: normal"><g transform="scale(10.66667,10.66667)"><path d="M12,2c-2.19733,0 -4,1.80267 -4,4v1c0,2.19733 1.80267,4 4,4c2.19733,0 4,-1.80267 4,-4v-1c0,-2.19733 -1.80267,-4 -4,-4zM12,4c1.11667,0 2,0.88333 2,2v1c0,1.11667 -0.88333,2 -2,2c-1.11667,0 -2,-0.88333 -2,-2v-1c0,-1.11667 0.88333,-2 2,-2zM10,13c-0.08162,-0.00015 -0.16296,0.00968 -0.24219,0.0293c-4.38045,1.09511 -6.58984,4.41602 -6.58984,4.41602c-0.10951,0.16426 -0.16795,0.35727 -0.16797,0.55469v2c0.00006,0.55226 0.44774,0.99994 1,1h16c0.55226,-0.00006 0.99994,-0.44774 1,-1v-2c-0.00001,-0.19742 -0.05846,-0.39042 -0.16797,-0.55469c0,0 -2.2094,-3.3209 -6.58984,-4.41602c-0.07923,-0.01961 -0.16057,-0.02945 -0.24219,-0.0293zM10.16797,15h3.66406c3.33874,0.86688 4.95997,3.07817 5.16797,3.37305v0.62695h-14v-0.62695c0.208,-0.29488 1.82922,-2.50616 5.16797,-3.37305z"></path></g></g></svg>